<svg xmlns="http://www.w3.org/2000/svg" width="385" height="36" viewBox="0 0 385 36" preserveAspectRatio="xMidYMid meet" role="img" aria-label="FIFA World Cup 26">
<g transform="translate(0,36) scale(0.1,-0.1)" fill="#ffffff" stroke="none" shape-rendering="geometricPrecision">
<path d="M1248 303 c-40 -6 -85 -53 -93 -97 -15 -80 37 -147 116 -148 57 -1
103 23 120 63 42 103 -32 198 -143 182z m62 -73 c11 -11 20 -33 20 -50 0 -27
-29 -70 -48 -70 -4 0 -18 7 -30 16 -31 21 -31 87 0 108 29 20 34 20 58 -4z"/>
<path d="M2251 297 c-66 -23 -96 -101 -67 -170 26 -63 124 -93 174 -54 6 5 12
23 12 39 0 25 -2 27 -19 18 -32 -17 -79 -12 -91 9 -15 29 -12 77 5 91 9 8 30
11 54 7 34 -4 40 -2 45 17 9 33 8 34 -31 45 -45 13 -39 13 -82 -2z"/>
<path d="M2981 299 c-52 -21 -70 -79 -25 -79 l27 0 -27 -21 c-23 -18 -26 -27
-26 -85 l0 -64 165 0 165 0 0 45 c0 41 -2 45 -25 45 l-24 0 24 25 c37 36 34
86 -6 119 -28 24 -37 26 -127 25 -53 0 -108 -5 -121 -10z"/>
<path d="M3334 296 c-39 -17 -44 -31 -44 -122 0 -112 27 -130 194 -123 73 4
88 7 110 28 35 33 35 83 1 116 l-24 25 24 0 c33 0 33 29 -1 61 -23 22 -35 24
-127 27 -71 1 -112 -2 -133 -12z"/>
<path d="M50 180 l0 -120 34 0 c34 0 35 1 38 43 3 36 6 42 28 46 51 7 55 51 5
51 -31 0 -35 3 -35 25 0 23 4 25 45 25 34 0 47 5 55 19 5 11 10 22 10 25 0 3
-40 6 -90 6 l-90 0 0 -120z"/>
<path d="M250 180 l0 -120 40 0 40 0 0 120 0 120 -40 0 -40 0 0 -120z"/>
<path d="M380 179 l0 -120 38 3 c36 3 37 4 40 45 3 37 6 42 29 45 16 2 29 12
34 26 8 20 5 22 -26 22 -31 0 -35 3 -35 25 0 23 4 25 44 25 42 0 56 10 56 41
0 5 -40 9 -90 9 l-90 0 0 -121z"/>
<path d="M605 288 c-58 -162 -75 -211 -75 -218 0 -6 16 -10 35 -10 24 0 35 5
35 15 0 21 85 21 94 0 6 -16 76 -22 76 -6 0 5 -11 40 -25 77 -14 38 -32 88
-41 112 -15 40 -18 42 -55 42 -23 0 -42 -5 -44 -12z m65 -130 c0 -13 -8 -18
-26 -18 -21 0 -25 4 -19 18 3 9 9 31 12 47 l7 30 12 -30 c7 -16 13 -38 14 -47z"/>
<path d="M864 180 l31 -120 32 0 c29 0 32 3 43 50 7 28 15 52 19 55 5 2 13
-20 20 -50 12 -53 14 -55 44 -55 l32 0 29 108 c16 59 31 113 34 120 3 8 -8 12
-36 12 -40 0 -40 -1 -47 -42 -12 -73 -22 -77 -35 -15 -11 49 -16 57 -36 57
-20 0 -26 -9 -39 -55 -9 -30 -18 -55 -20 -55 -2 0 -9 25 -15 55 l-11 55 -39 0
-38 0 32 -120z"/>
<path d="M1440 180 l0 -120 35 0 c33 0 35 2 35 35 0 19 4 35 9 35 5 0 19 -16
31 -35 19 -31 27 -35 61 -35 43 0 43 1 5 52 l-20 28 22 23 c30 32 29 81 -3
112 -21 22 -33 25 -100 25 l-75 0 0 -120z m123 48 c13 -20 -6 -48 -34 -48 -15
0 -19 7 -19 36 0 31 3 35 21 32 12 -2 27 -10 32 -20z"/>
<path d="M1680 180 l0 -120 73 0 c69 0 74 2 85 25 17 36 18 35 -38 35 l-50 0
0 90 0 90 -35 0 -35 0 0 -120z"/>
<path d="M1870 180 l0 -120 60 0 c105 0 160 41 160 119 0 82 -49 121 -152 121
l-68 0 0 -120z m138 42 c6 -9 12 -26 12 -39 0 -27 -44 -77 -63 -70 -13 4 -22
99 -13 124 7 18 45 9 64 -15z"/>
<path d="M2402 204 c3 -91 5 -97 31 -120 40 -34 118 -34 152 1 23 22 25 32 25
120 l0 95 -35 0 -35 0 0 -77 c0 -86 -8 -107 -36 -101 -17 3 -19 14 -22 91 l-3
87 -40 0 -41 0 4 -96z"/>
<path d="M2650 180 l0 -120 40 0 c39 0 40 1 40 35 0 31 3 35 25 35 33 0 81 25
89 45 3 9 6 32 6 50 0 54 -36 75 -126 75 l-74 0 0 -120z m116 56 c15 -12 17
-18 8 -33 -6 -10 -19 -19 -28 -21 -12 -3 -16 4 -16 32 0 39 6 43 36 22z"/>
</g>
<text x="370" y="8.5" fill="#ffffff" font-family="Arial, Helvetica, sans-serif" font-size="7.5" font-weight="bold">&#8482;</text>
</svg>
